<?xml version="1.0" encoding="utf-8"?>
<!-- Generator: Adobe Illustrator 22.1.0, SVG Export Plug-In . SVG Version: 6.00 Build 0)  -->
<svg version="1.1" id="Layer_1" xmlns="http://www.w3.org/2000/svg" xmlns:xlink="http://www.w3.org/1999/xlink" x="0px" y="0px"
	 viewBox="0 0 307 47" style="enable-background:new 0 0 307 47;" xml:space="preserve">
<style type="text/css">
	.st0{fill:#FFFFFF;}
</style>
<g id="LOGO-red">
	<g id="LOGO">
		<g id="Group-3" transform="translate(0.000000, 41.000000)">
			<g id="Clip-2">
			</g>
			<path id="Fill-1" class="st0" d="M7.2-6.5c0,0-0.9-1.1-3.3,0s-1.7,1-1.5,1.4c0.1,0.3,2.5-0.5,2.5-0.5S4.2-3.8,3.8-3.7
				C3.4-3.5,1.4-3.3,1.1-3.3C0.7-3.4,0-3.4,0-4.4c0.1-1,1.7-3.4,1.7-3.4l1.1,0.5l2-1.3c0,0,8.8-2.2,10.7-3.1
				c2.6-1.3,0.1-1.3,0.1-1.3S5.5-10.2,4.8-10.9c-0.3-0.2-3.5-0.1-3.4-3l0.7-0.8c0,0,0,1.5,2,1.7c0.6,0.1,12.6-1.5,14.8-3.5l1.8,0.9
				c0,0,10-1.4,12.3-3.8l1.8-1.6c0,0-0.1,1.8-1.1,3c0,0-0.3,1.6-4.5,2.5C25-14.6,21.5-14,21.5-14s-1.5,0.7,0,1
				c1.6,0.2,6.6-0.9,6.6-0.9l0.8,0.1c0,0-0.2,1.1-1,1.3C27.3-12.3,14.3-11.5,7.2-6.5"/>
		</g>
		<path id="Fill-4" class="st0" d="M16.8,10.8c0,0-0.6,4.2,0,5.1c0.5,0.8,1.9,3.5,7.2,2c5.3-1.5,8.4-4.8,8.7-5.1
			c0,0-3.6,7.8-11.6,7.4c0,0-5.3-0.8-5.7-4.9C15.1,11.2,16.8,10.8,16.8,10.8"/>
		<path id="Fill-5" class="st0" d="M18.8,13.9c0,0,0.7,5.8,10,0.6c0,0,8.4-4.5,10.9-5.7c0.5-0.2,5.8-2.6,6.7-2.5
			c0,0-3.4-0.6-7.8,1.6c-4.1,2.1-3.9,2.2-8.8,4.8C28.6,13.5,21.3,17.2,18.8,13.9"/>
		<path id="Fill-6" class="st0" d="M44.9,12.8c0,0-4.6,6-4.7,7.8c0,1.7,0.5,2.6,3.7,1.4c3.2-1.1,8.1-5.6,8.1-5.6s-8.2,9.7-13.8,8.1
			c0,0-0.3-2,0.5-4.1C39.4,18.1,43.4,13.5,44.9,12.8"/>
		<path id="Fill-7" class="st0" d="M46.3,23.7c0,0-3.3,4.4-15.7,5.6c0,0,15.4,4.8,25.2-9.8c0,0-0.1-1.5-1.1-0.4c0,0-5.1,5-6.7,5.7
			C48.1,24.8,46.5,26.2,46.3,23.7"/>
		<path id="Fill-8" class="st0" d="M37.1,18.7c0.2-0.3,0.3-1,0.5-1.4c0.5-1.1,1.2-2.1,1.9-3.1c2.6-3.7,6.1-6.1,10.4-7.7
			c3.3-1.2,6.8-1.9,10.2-2c1.3,0,2.6,0.1,3.9,0.2c4.3,0.3,8.6,0.5,12.9,0.4c1.6-0.1,3.6-0.1,5.1-0.8c-0.9,0.4-2,0.7-2.9,0.9
			c-3.4,0.8-7,1-10.5,1.1c-4.3,0-8.5-0.5-12.7,0.3c-4.1,0.8-8,2.7-11.4,5.1C41.8,13.8,39.3,16.1,37.1,18.7"/>
		<path id="Fill-9" class="st0" d="M57.3,17.2c0,0,3.5-7.3,14.8-6.9C72.2,10.3,60.1,14.3,57.3,17.2"/>
		<g id="Group-14" transform="translate(117.000000, 0.000000)">
			<path id="Fill-10" class="st0" d="M-59.1,20.4c0,0,4.9-2.2,9.6-0.3l-0.6,0.1L-59.1,20.4"/>
			<path id="Fill-12" class="st0" d="M-38.5,3.6c0,0,3.6-2.6,8.6-3.3c2.3-0.3,6-0.2,8.3,0.2l-0.9,0.1c0,0-3.2,0-7.5,0.4
				C-34.1,1.6-38.2,3.4-38.5,3.6"/>
			<path id="Fill-13" class="st0" d="M-58,17.6c0,0,7-4.3,22.3,3.3c0,0,11.6,5.7,24,0.9c1.3-0.5,3.2,0.2,4.3,0.9
				c0.6,0.4,1.2,0.9,1.6,1.5c0.5,0.6,1.1,1.4,1.4,2.2c0.3,1.1,0.6,2,1.7,2.6c1.1,0.6,2.6,0.6,3.8,1c0.9,0.3,1.5,0.8,2.2,1.3
				c2,1.4,3.9,3.2,5.6,4.9c1.3,1.2,2.7,2.3,3.9,3.7c0,0,6.8,6.5,11.9,4.3l-1.1,1.6c0,0-2.4,1.1-4.3,0.3S15,42.8,12.4,43
				c0,0-0.6-0.7-3.2-3c-4.2-3.8-7.4-8.4-8.3-8.9s-1.7-0.4-1.9,0.2l-0.2,0.6c0,0-1.1-0.3-2.8-2.3c-1.9-2.1-4.1-7-7.7-6.1
				c-1.6,0.4-10.7,7.4-25.1-0.2C-51.4,15.6-52.5,17.6-58,17.6"/>
		</g>
		<path id="Fill-15" class="st0" d="M75.4,18.4c0,0-1.2-10-2.5-11.2s1.9,0.3,2.8,1.9c0.9,1.6,1.2,7.1,1.4,7.7
			c0.2,0.6,0.9,0.8,1.9,0.7c2.8-0.3,26.1-3.2,32.6-2.2c0,0,0.7-0.1,0.6-1.5c0-1.3,0.2-6,0.2-6s1.8,4.6,3.3,5.7
			c2.3,1.6,4.4,3.7,6.7,3.7c0,0-3.2,0-3.7,0.5c-0.4,0.6-0.9,3.4,2.7,5.8l-0.2,0.7c0,0-4.6-4.6-6.1-5.4c-1.5-0.8,2.2,0.3,2.3-0.6
			c0.1-0.9-0.1-2.9-0.9-3.3c-0.8-0.4-2.3-1.4-2.3-1.4s0.7,2.6,0.1,3.5c-0.5,0.9,0.8,1.8,0.8,1.8s-2.4-1.4-6-1.5l-12.8,0l-17.5,1.7
			c0,0-0.4-0.5,0,0.9s-3.7-0.5-3.7-0.5L75.4,18.4"/>
		<g id="Group-20" transform="translate(179.000000, 3.000000)">
			<path id="Fill-16" class="st0" d="M-79.1,18c1.5-0.4,3.1-0.6,4.7-1c2.7-0.5,6,1.4,7.3,3.8c0.7,1.4,3.6,6.1,5.9,4.2l0.9-1.4
				c0,0-1,0.6-2.3-0.2c-1.3-0.8-3-2.1-4.3-4.2c-1.1-1.7-3.6-3.2-5.6-3.4C-73.5,15.6-77.5,16.4-79.1,18"/>
			<path id="Fill-18" class="st0" d="M-57.3,22.4l-1.5,2.9c0,0,9.5-3.4,16.6,2.1l0.7-1c0,0,3.7,2.1,4.4,3c0.8,0.9,2.6,2.8,2.4,3.2
				c-0.2,0.4-0.4,0.7-0.4,0.7s-0.7-0.1-0.9-0.7c-0.2-0.6-0.5-0.3-0.5-0.3s-0.6,0.5-0.3,1.2c0.2,0.7,1.3,3.5,5,2.6
				c0,0-2.4-0.9-2.2-1.8c0.1-0.9,0.4-1.6,0.4-1.6l2.2,2c0,0,0.7,0,0.3-0.4c-3.3-3.6-4.8-8.4-9.5-10.5c-2.1-0.9-4.7-1-6.9-1.4
				c-2.2-0.4-4.4-0.7-6.7-0.6C-55.3,21.8-56.4,21.9-57.3,22.4"/>
			<path id="Fill-19" class="st0" d="M-90.3,0.1c0,0,18.5-3.8,27.3,0.6c0,0,3.1,2.2,6.6,0.3c0,0,5.8,4.1,6.5,4.1
				c0.6,0,2.5,0.4,3,0.7c0.5,0.3,4.1,2.4,4.1,2.4s0.5,3.1,1.1,3.6s6,3.7,4.7,5.7l-0.6,0.2c0,0-0.1-1.4-1.1-2c-0.9-0.6-5.8-3.7-6-4.4
				c-0.2-0.7,1.2-2.1,1.2-2.1s0.2-0.4-0.4-0.8c-0.7-0.4-3.5-2.2-3.5-2.2s-1.4-0.5-2.2,0.1c-0.7,0.6-1.2,1.5-1.2,1.5
				s-0.4-1.5-1.5-2.3s-4.4-3-4.4-3L-56.9,3c0,0,1.1,2,1.4,2.4c0.3,0.4-0.3,0.3-0.3,0.3s-3.1-1.8-4.9-2.6c-1.8-0.8-2.5-0.6-1.5,1.1
				s3.5,3.6,3.3,4.7L-59.4,9c0,0-1.4-3.7-6.9-6.3C-72,0.1-88.4-0.9-90.3,0.1"/>
		</g>
		<path id="Fill-21" class="st0" d="M123.9,12.3c0,0-2.1,2.5,0.1,4.8s4.7,3.5,5.2,3.8c0.5,0.3,3.4,0.7,4,1.9s1.7,1.8,1.7,1.8
			s0.8-0.1,0.9-0.2c0.1-0.2-1.1-2.2-1.4-2.4c-0.3-0.2-2.3-1.5-4.7-2.7c-2.4-1.2-4.5-2.8-4.6-3.2c-0.1-0.3-1.1-2-0.5-3.2L123.9,12.3"
			/>
		<path id="Fill-22" class="st0" d="M131.4,17.7c0,0,1.8-0.2,2.6,0.1c0.7,0.3,4,2.7,4.4,2.4l0.4-0.3l2.6,1.4c0,0-1.7,0.7-2.3,0.3
			c-0.5-0.4-1.8-1.1-2.5-1.3c-0.7-0.2-0.4,0.2,0,0.4c0.3,0.2,1.6,1.3,1.9,1.8c0.2,0.3,0.4,0.9-0.2,1.2l-0.8,0.4c0,0,0.2-1.7-0.8-2.3
			s-1.8-1.4-1.9-2.2C134.6,19,131.4,17.7,131.4,17.7"/>
		<path id="Fill-23" class="st0" d="M114.7,16.7c0,0,1.2,1.8,2.9,1.2v1.8c0,0-2.1-1.6-3.5-2C112.8,17.3,114.7,16.7,114.7,16.7"/>
	</g>
</g>
<g>
	<path class="st0" d="M171.2,23.5c-0.7,0.8-1.6,1.4-2.6,1.8s-2.2,0.6-3.4,0.6c-2.1,0-3.8-0.7-5-2s-1.8-3.2-1.8-5.7v-3.3
		c0-2.5,0.6-4.5,1.7-5.9s2.7-2.1,4.9-2.1c2,0,3.5,0.5,4.5,1.5s1.6,2.5,1.8,4.7h-3.6c-0.1-1.2-0.3-2-0.7-2.4s-1-0.6-1.8-0.6
		c-1,0-1.7,0.4-2.2,1.1s-0.7,1.9-0.7,3.5v3.4c0,1.7,0.3,2.9,0.8,3.7s1.3,1.1,2.5,1.1c0.7,0,1.3-0.1,1.8-0.4l0.3-0.2v-3.4h-2.6v-2.8
		h6.4V23.5z"/>
	<path class="st0" d="M179.4,18.9h-1.9v6.8h-3.7V7.1h6c1.9,0,3.3,0.5,4.3,1.5s1.5,2.3,1.5,4.1c0,2.5-0.9,4.2-2.7,5.2l3.2,7.6v0.2h-4
		L179.4,18.9z M177.5,15.7h2.1c0.7,0,1.3-0.2,1.7-0.7s0.6-1.2,0.6-2c0-1.9-0.7-2.8-2.2-2.8h-2.2V15.7z"/>
	<path class="st0" d="M197.7,17.6h-5.8v4.9h6.9v3.1h-10.6V7.1h10.6v3.1h-6.9v4.4h5.8V17.6z"/>
	<path class="st0" d="M206.5,15.4l2.8-8.3h4.1l-5,11.8v6.7h-3.8v-6.7l-5-11.8h4.1L206.5,15.4z"/>
	<path class="st0" d="M228,25.6h-3.7v-7.9h-5.5v7.9h-3.7V7.1h3.7v7.5h5.5V7.1h3.7V25.6z"/>
	<path class="st0" d="M244,18c0,2.5-0.6,4.4-1.8,5.8s-2.8,2.1-4.9,2.1c-2.1,0-3.7-0.7-4.9-2s-1.8-3.3-1.8-5.7V15
		c0-2.5,0.6-4.5,1.8-5.9s2.8-2.1,4.9-2.1c2.1,0,3.7,0.7,4.9,2.1s1.8,3.4,1.8,5.9V18z M240.3,14.9c0-1.7-0.2-2.9-0.7-3.7
		s-1.2-1.2-2.2-1.2c-1,0-1.7,0.4-2.2,1.2s-0.7,2-0.7,3.6V18c0,1.6,0.2,2.8,0.7,3.6s1.2,1.1,2.2,1.1c1,0,1.7-0.4,2.2-1.1
		s0.7-1.9,0.7-3.5V14.9z"/>
	<path class="st0" d="M258.7,7.1v12.8c0,1.9-0.5,3.4-1.6,4.4s-2.5,1.5-4.5,1.5c-2,0-3.5-0.5-4.5-1.5s-1.6-2.5-1.6-4.5V7.1h3.8v12.7
		c0,1,0.2,1.8,0.5,2.2s1,0.7,1.8,0.7s1.5-0.2,1.8-0.7s0.5-1.2,0.5-2.2V7.1H258.7z"/>
	<path class="st0" d="M274.5,25.6h-3.7l-5.5-12.1v12.1h-3.7V7.1h3.7l5.5,12.1V7.1h3.7V25.6z"/>
	<path class="st0" d="M277.5,25.6V7.1h4.9c2.2,0,3.9,0.7,5.2,2.1s1.9,3.2,2,5.6v3c0,2.4-0.6,4.3-1.9,5.7s-3,2.1-5.3,2.1H277.5z
		 M281.2,10.2v12.3h1.1c1.2,0,2.1-0.3,2.6-1s0.8-1.8,0.8-3.4v-3.2c0-1.7-0.2-2.9-0.7-3.6s-1.3-1-2.5-1.1H281.2z"/>
	<path class="st0" d="M300,20.8c0-0.8-0.2-1.3-0.6-1.7s-1.1-0.8-2.1-1.2c-1.9-0.7-3.2-1.5-4-2.5s-1.2-2.1-1.2-3.3
		c0-1.6,0.6-2.8,1.7-3.8s2.5-1.4,4.2-1.4c1.1,0,2.1,0.2,3,0.7s1.6,1.2,2.1,2s0.7,1.9,0.7,3H300c0-0.9-0.2-1.5-0.6-2
		s-0.9-0.7-1.6-0.7c-0.7,0-1.2,0.2-1.5,0.6s-0.5,0.9-0.5,1.6c0,0.5,0.2,1,0.6,1.4s1.1,0.8,2.2,1.3c1.8,0.7,3.1,1.5,3.9,2.4
		s1.2,2.2,1.2,3.6c0,1.6-0.5,2.9-1.5,3.8s-2.4,1.4-4.2,1.4c-1.2,0-2.3-0.2-3.3-0.7s-1.8-1.2-2.3-2.1s-0.8-2-0.8-3.2h3.7
		c0,1.1,0.2,1.8,0.6,2.3s1.1,0.7,2,0.7C299.3,22.8,300,22.1,300,20.8z"/>
</g>
<g>
	<path class="st0" d="M157.8,31.8l2.2,7l2.2-7h1.4v8.5h-1.1V37l0.1-3.3l-2.2,6.7h-0.8l-2.2-6.6l0.1,3.3v3.3h-1.1v-8.5H157.8z"/>
	<path class="st0" d="M169.6,38.1h-2.9l-0.7,2.2h-1.1l2.7-8.5h0.9l2.8,8.5h-1.1L169.6,38.1z M167,37.2h2.3l-1.2-3.9L167,37.2z"/>
	<path class="st0" d="M176.2,38.2c0-0.4-0.1-0.8-0.3-1s-0.6-0.4-1.2-0.7s-1.1-0.4-1.4-0.7s-0.6-0.5-0.7-0.8s-0.2-0.6-0.2-1
		c0-0.7,0.2-1.2,0.7-1.7s1-0.7,1.8-0.7c0.5,0,0.9,0.1,1.3,0.3s0.7,0.5,0.9,0.9s0.3,0.8,0.3,1.3h-1.1c0-0.5-0.1-0.9-0.4-1.2
		s-0.6-0.4-1.1-0.4c-0.4,0-0.8,0.1-1,0.4s-0.4,0.6-0.4,1c0,0.4,0.1,0.7,0.4,0.9s0.7,0.5,1.2,0.7c0.8,0.3,1.4,0.6,1.8,1
		s0.5,0.9,0.5,1.6c0,0.7-0.2,1.2-0.7,1.7s-1.1,0.6-1.8,0.6c-0.5,0-1-0.1-1.4-0.3s-0.8-0.5-1-0.9s-0.4-0.8-0.4-1.4h1.1
		c0,0.5,0.1,0.9,0.4,1.2s0.7,0.4,1.2,0.4c0.5,0,0.8-0.1,1.1-0.4S176.2,38.6,176.2,38.2z"/>
	<path class="st0" d="M183.7,32.7h-2.2v7.6h-1.1v-7.6h-2.2v-0.9h5.6V32.7z"/>
	<path class="st0" d="M189.1,36.4h-3v3h3.5v0.9H185v-8.5h4.5v0.9H186v2.7h3V36.4z"/>
	<path class="st0" d="M193.5,36.9H192v3.5h-1.1v-8.5h2.4c0.8,0,1.5,0.2,1.9,0.7s0.6,1.1,0.6,1.9c0,0.5-0.1,1-0.3,1.4s-0.6,0.7-1,0.9
		l1.7,3.6v0.1H195L193.5,36.9z M192,36h1.3c0.4,0,0.8-0.1,1.1-0.4c0.3-0.3,0.4-0.7,0.4-1.2c0-1.1-0.5-1.6-1.5-1.6H192V36z"/>
	<path class="st0" d="M201,38.2c0-0.4-0.1-0.8-0.3-1s-0.6-0.4-1.2-0.7s-1.1-0.4-1.4-0.7s-0.6-0.5-0.7-0.8s-0.2-0.6-0.2-1
		c0-0.7,0.2-1.2,0.7-1.7s1-0.7,1.8-0.7c0.5,0,0.9,0.1,1.3,0.3s0.7,0.5,0.9,0.9s0.3,0.8,0.3,1.3H201c0-0.5-0.1-0.9-0.4-1.2
		s-0.6-0.4-1.1-0.4c-0.4,0-0.8,0.1-1,0.4s-0.4,0.6-0.4,1c0,0.4,0.1,0.7,0.4,0.9s0.7,0.5,1.2,0.7c0.8,0.3,1.4,0.6,1.8,1
		s0.5,0.9,0.5,1.6c0,0.7-0.2,1.2-0.7,1.7s-1.1,0.6-1.8,0.6c-0.5,0-1-0.1-1.4-0.3s-0.8-0.5-1-0.9s-0.4-0.8-0.4-1.4h1.1
		c0,0.5,0.1,0.9,0.4,1.2s0.7,0.4,1.2,0.4c0.5,0,0.8-0.1,1.1-0.4S201,38.6,201,38.2z"/>
	<path class="st0" d="M211,32.7h-2.2v7.6h-1.1v-7.6h-2.2v-0.9h5.6V32.7z"/>
	<path class="st0" d="M214.8,36.9h-1.5v3.5h-1.1v-8.5h2.4c0.8,0,1.5,0.2,1.9,0.7s0.6,1.1,0.6,1.9c0,0.5-0.1,1-0.3,1.4
		s-0.6,0.7-1,0.9l1.7,3.6v0.1h-1.2L214.8,36.9z M213.3,36h1.3c0.4,0,0.8-0.1,1.1-0.4c0.3-0.3,0.4-0.7,0.4-1.2c0-1.1-0.5-1.6-1.5-1.6
		h-1.3V36z"/>
	<path class="st0" d="M222.6,38.1h-2.9l-0.7,2.2H218l2.7-8.5h0.9l2.8,8.5h-1.1L222.6,38.1z M220,37.2h2.3l-1.2-3.9L220,37.2z"/>
	<path class="st0" d="M230.8,37.6c0,0.9-0.3,1.6-0.8,2.1s-1.1,0.7-2,0.7c-0.9,0-1.5-0.3-2-1s-0.8-1.5-0.8-2.6v-1.5
		c0-1.1,0.3-2,0.8-2.6s1.2-1,2.1-1c0.8,0,1.5,0.2,1.9,0.7s0.7,1.2,0.7,2.1h-1.1c0-0.7-0.2-1.2-0.4-1.5s-0.6-0.4-1.1-0.4
		c-0.6,0-1,0.2-1.3,0.7s-0.5,1.1-0.5,2v1.6c0,0.9,0.1,1.5,0.4,2s0.7,0.7,1.3,0.7s1-0.1,1.2-0.4s0.4-0.8,0.5-1.5H230.8z"/>
	<path class="st0" d="M234.2,36.4l-0.8,1v2.9h-1.1v-8.5h1.1v4.1l0.7-0.9l2.3-3.2h1.3l-2.8,3.8l3,4.8h-1.3L234.2,36.4z"/>
	<path class="st0" d="M241.3,38c0-0.4,0.1-0.8,0.3-1.1s0.6-0.7,1.1-1.2c-0.3-0.4-0.5-0.8-0.7-1.1s-0.2-0.6-0.2-0.9
		c0-0.7,0.2-1.2,0.5-1.5s0.8-0.5,1.3-0.5c0.5,0,0.9,0.2,1.3,0.5s0.5,0.8,0.5,1.3c0,0.3-0.1,0.6-0.2,0.9s-0.4,0.6-0.7,0.9l-0.6,0.5
		l1.5,2.2c0.2-0.5,0.3-1,0.3-1.6h0.9c0,1-0.2,1.8-0.6,2.4l1,1.5h-1.2l-0.4-0.6c-0.2,0.2-0.5,0.4-0.8,0.5s-0.6,0.2-1,0.2
		c-0.7,0-1.3-0.2-1.7-0.7S241.3,38.8,241.3,38z M243.6,39.6c0.5,0,0.9-0.2,1.3-0.6l-1.7-2.5l-0.2,0.1c-0.5,0.4-0.7,0.9-0.7,1.4
		c0,0.5,0.1,0.8,0.4,1.1S243.2,39.6,243.6,39.6z M242.9,33.7c0,0.2,0.1,0.4,0.2,0.7s0.2,0.5,0.4,0.7l0.5-0.4
		c0.2-0.2,0.4-0.4,0.5-0.6s0.1-0.4,0.1-0.7s-0.1-0.5-0.2-0.7s-0.4-0.3-0.6-0.3c-0.3,0-0.5,0.1-0.6,0.3S242.9,33.4,242.9,33.7z"/>
	<path class="st0" d="M254.8,36.6h-2.9v3.8h-1.1v-8.5h4.4v0.9h-3.4v2.9h2.9V36.6z"/>
	<path class="st0" d="M257.7,40.3h-1.1v-8.5h1.1V40.3z"/>
	<path class="st0" d="M263.7,36.4h-3v3h3.5v0.9h-4.6v-8.5h4.5v0.9h-3.5v2.7h3V36.4z"/>
	<path class="st0" d="M266.7,39.4h3.3v0.9h-4.4v-8.5h1.1V39.4z"/>
	<path class="st0" d="M271.3,40.3v-8.5h2c1,0,1.8,0.3,2.3,0.9s0.8,1.5,0.8,2.6v1.4c0,1.1-0.3,2-0.8,2.6s-1.4,0.9-2.4,0.9H271.3z
		 M272.3,32.7v6.7h0.9c0.8,0,1.3-0.2,1.7-0.6s0.5-1.1,0.5-1.9v-1.5c0-0.9-0.2-1.6-0.5-2s-0.9-0.6-1.6-0.6H272.3z"/>
	<path class="st0" d="M286.2,37.6c0,0.9-0.3,1.6-0.8,2.1s-1.1,0.7-2,0.7c-0.9,0-1.5-0.3-2-1s-0.8-1.5-0.8-2.6v-1.5
		c0-1.1,0.3-2,0.8-2.6s1.2-1,2.1-1c0.8,0,1.5,0.2,1.9,0.7s0.7,1.2,0.7,2.1h-1.1c0-0.7-0.2-1.2-0.4-1.5s-0.6-0.4-1.1-0.4
		c-0.6,0-1,0.2-1.3,0.7s-0.5,1.1-0.5,2v1.6c0,0.9,0.1,1.5,0.4,2s0.7,0.7,1.3,0.7s1-0.1,1.2-0.4s0.4-0.8,0.5-1.5H286.2z"/>
	<path class="st0" d="M288.8,39.4h3.3v0.9h-4.4v-8.5h1.1V39.4z"/>
	<path class="st0" d="M298.1,31.8v6.1c0,0.8-0.2,1.4-0.7,1.9s-1.1,0.7-1.9,0.7c-0.8,0-1.5-0.2-1.9-0.7s-0.7-1.1-0.7-1.9v-6.1h1.1v6
		c0,0.6,0.1,1,0.4,1.3c0.2,0.3,0.6,0.4,1.2,0.4c0.5,0,0.9-0.1,1.2-0.4c0.2-0.3,0.4-0.7,0.4-1.3v-6H298.1z"/>
	<path class="st0" d="M299.8,40.3v-8.5h2.4c0.8,0,1.4,0.2,1.8,0.6s0.6,0.9,0.6,1.7c0,0.4-0.1,0.8-0.3,1.1s-0.5,0.5-0.8,0.7
		c0.4,0.1,0.7,0.4,0.9,0.7s0.3,0.8,0.3,1.3c0,0.8-0.2,1.4-0.6,1.8s-1,0.7-1.8,0.7H299.8z M300.9,35.4h1.4c0.4,0,0.7-0.1,0.9-0.4
		c0.2-0.3,0.3-0.6,0.3-1c0-0.5-0.1-0.8-0.3-1c-0.2-0.2-0.5-0.3-0.9-0.3h-1.4V35.4z M300.9,36.3v3.1h1.5c0.4,0,0.7-0.1,1-0.4
		s0.4-0.6,0.4-1.1c0-1-0.4-1.5-1.3-1.5H300.9z"/>
</g>
</svg>
